#!OML:ASF H:\Dans Jumps\Project 1\Capture day 1\Session 1\subject.ASF
:FULLY-SPECIFIED
:DEGREES
340
root 0.498719 17.7405 -2.36946 7.77789 -1.45607 -1.00405
lowerback -0.147887 -0.0679179 -0.256087
upperback 4.41417 -0.136538 1.31147
thorax 4.6369 -0.107368 1.49198
lowerneck -12.0914 0.26141 -2.09949
upperneck 34.708 0.559903 1.08443
head 13.7684 0.107896 0.887956
rclavicle 7.15625e-015 -9.93923e-016
rhumerus -24.4058 -14.2681 -81.9514
rradius 22.1914
rwrist 34.8267
rhand -17.8403 -25.6693
rfingers 7.12502
rthumb 8.42447 -55.4812
lclavicle 7.15625e-015 -9.93923e-016
lhumerus -23.3832 -3.93436 89.9475
lradius 17.9387
lwrist 6.94973
lhand -25.1488 -1.95439
lfingers 7.12502
lthumb 1.36788 28.021
rfemur -16.8558 -0.182028 18.0303
rtibia 23.6458
rfoot -12.9964 0.901632
rtoes 13.8328
lfemur -14.7614 6.63085 -18.3267
ltibia 20.3418
lfoot -9.57029 6.644
ltoes 2.05373
341
root 0.49728 17.7416 -2.36582 7.77133 -1.50903 -1.01498
lowerback -0.170406 -0.0663987 -0.247398
upperback 4.41012 -0.13509 1.31759
thorax 4.64544 -0.106479 1.4935
lowerneck -12.101 0.272185 -2.09934
upperneck 34.7452 0.574351 1.0875
head 13.7868 0.11406 0.891713
rclavicle 1.83876e-015 9.34288e-015
rhumerus -24.4526 -14.3181 -81.9008
rradius 22.1385
rwrist 34.916
rhand -17.8192 -25.6691
rfingers 7.12502
rthumb 8.44482 -55.4802
lclavicle 1.83876e-015 9.34288e-015
lhumerus -23.2517 -3.85428 89.9127
lradius 17.9023
lwrist 6.77399
lhand -25.0948 -1.94263
lfingers 7.12502
lthumb 1.42004 28.0324
rfemur -16.8173 -0.175581 18.0454
rtibia 23.5937
rfoot -12.9818 0.949603
rtoes 13.8629
lfemur -14.7018 6.63736 -18.3078
ltibia 20.2863
lfoot -9.55287 6.68562
ltoes 2.05734
342
root 0.495692 17.7425 -2.36235 7.76285 -1.5632 -1.02724
lowerback -0.191177 -0.0644448 -0.239739
upperback 4.40685 -0.133034 1.32358
thorax 4.65379 -0.105328 1.4955
lowerneck -12.1188 0.282455 -2.09712
upperneck 34.7864 0.58758 1.09089
head 13.8089 0.119963 0.895142
rclavicle 1.63997e-015 -6.95746e-015
rhumerus -24.4866 -14.3805 -81.851
rradius 22.0846
rwrist 35.0025
rhand -17.8187 -25.657
rfingers 7.12502
rthumb 8.44528 -55.4682
lclavicle 1.63997e-015 -6.95746e-015
lhumerus -23.1206 -3.7974 89.8841
lradius 17.8802
lwrist 6.6329
lhand -25.1683 -2.09762
lfingers 7.12502
lthumb 1.34901 27.8779
rfemur -16.7806 -0.161312 18.0622
rtibia 23.5479
rfoot -12.9683 0.991357
rtoes 13.8914
lfemur -14.6434 6.64644 -18.2868
ltibia 20.2366
lfoot -9.53885 6.7269
ltoes 2.05939
343
root 0.493957 17.7433 -2.35917 7.75273 -1.6171 -1.03706
lowerback -0.208375 -0.0625126 -0.236236
upperback 4.40328 -0.130804 1.32783
thorax 4.65978 -0.104203 1.49803
lowerneck -12.1409 0.291555 -2.09281
upperneck 34.8297 0.598481 1.09466
head 13.833 0.12515 0.898063
rclavicle -3.03147e-015 9.14409e-015
rhumerus -24.5107 -14.4502 -81.804
rradius 22.0336
rwrist 35.0814
rhand -17.8334 -25.6419
rfingers 7.12502
rthumb 8.43108 -55.4536
lclavicle -3.03147e-015 9.14409e-015
lhumerus -22.9927 -3.76511 89.8602
lradius 17.8767
lwrist 6.52241
lhand -25.1992 -2.16067
lfingers 7.12502
lthumb 1.31923 27.815
rfemur -16.7471 -0.142916 18.0769
rtibia 23.5098
rfoot -12.9556 1.02711
rtoes 13.9157
lfemur -14.5865 6.65379 -18.2677
ltibia 20.1922
lfoot -9.52676 6.76964
ltoes 2.06158
344
root 0.492101 17.7439 -2.35636 7.74299 -1.67108 -1.0437
lowerback -0.224513 -0.0611538 -0.237978
upperback 4.39997 -0.129148 1.33097
thorax 4.66549 -0.103545 1.50232
lowerneck -12.1655 0.301319 -2.08518
upperneck 34.8719 0.610685 1.09505
head 13.8572 0.130884 0.89924
rclavicle -8.15017e-015 -3.97569e-016
rhumerus -24.5232 -14.5106 -81.7639
rradius 21.9898
rwrist 35.1399
rhand -17.8488 -25.639
rfingers 7.12502
rthumb 8.41628 -55.4513
lclavicle -8.15017e-015 -3.97569e-016
lhumerus -22.8648 -3.74329 89.8379
lradius 17.8873
lwrist 6.42869
lhand -25.2191 -2.21532
lfingers 7.12502
lthumb 1.29991 27.7605
rfemur -16.7203 -0.122453 18.0887
rtibia 23.4811
rfoot -12.9439 1.06005
rtoes 13.9311
lfemur -14.5339 6.65961 -18.2517
ltibia 20.1522
lfoot -9.51594 6.81191
ltoes 2.07662
345
root 0.490154 17.7444 -2.35391 7.73278 -1.72307 -1.04526
lowerback -0.236941 -0.0610158 -0.24557
upperback 4.39553 -0.128832 1.33175
thorax 4.66793 -0.103709 1.50739
lowerneck -12.1862 0.310746 -2.07826
upperneck 34.9089 0.621691 1.09763
head 13.8783 0.13633 0.901171
rclavicle 1.3418e-015 -1.98785e-015
rhumerus -24.5251 -14.5658 -81.7304
rradius 21.9502
rwrist 35.1881
rhand -17.864 -25.6481
rfingers 7.12502
rthumb 8.40157 -55.461
lclavicle 1.3418e-015 -1.98785e-015
lhumerus -22.7382 -3.73411 89.8167
lradius 17.9094
lwrist 6.36354
lhand -25.1962 -2.2215
lfingers 7.12502
lthumb 1.32209 27.7541
rfemur -16.6992 -0.104581 18.0955
rtibia 23.4624
rfoot -12.9338 1.09207
rtoes 13.9423
lfemur -14.4845 6.6646 -18.2412
ltibia 20.115
lfoot -9.50339 6.85278
ltoes 2.08511
346
root 0.488155 17.7448 -2.35197 7.72359 -1.77055 -1.04313
lowerback -0.244484 -0.0632135 -0.256331
upperback 4.38896 -0.131402 1.33018
thorax 4.66546 -0.105348 1.51167
lowerneck -12.2037 0.320445 -2.07016
upperneck 34.9425 0.632765 1.09992
head 13.8971 0.141934 0.902732
rclavicle 9.93923e-017 9.54166e-015
rhumerus -24.5202 -14.6059 -81.7066
rradius 21.9221
rwrist 35.22
rhand -17.8663 -25.6746
rfingers 7.12502
rthumb 8.39935 -55.4876
lclavicle 9.93923e-017 9.54166e-015
lhumerus -22.6115 -3.72981 89.794
lradius 17.9363
lwrist 6.31731
lhand -25.1696 -2.23462
lfingers 7.12502
lthumb 1.34777 27.7409
rfemur -16.6856 -0.0929056 18.0991
rtibia 23.453
rfoot -12.9254 1.12477
rtoes 13.9422
lfemur -14.4408 6.66576 -18.2348
ltibia 20.0804
lfoot -9.48936 6.89266
ltoes 2.09962
